<?xml version="1.0" standalone="no"?>
<!DOCTYPE svg PUBLIC "-//W3C//DTD SVG 20010904//EN"
 "http://www.w3.org/TR/2001/REC-SVG-20010904/DTD/svg10.dtd">
<svg version="1.0" xmlns="http://www.w3.org/2000/svg"
 width="1517.000000pt" height="980.000000pt" viewBox="0 0 1517.000000 980.000000"
 preserveAspectRatio="xMidYMid meet">

<g transform="translate(0.000000,980.000000) scale(0.100000,-0.100000)"
fill="#000000" stroke="none">
<path d="M0 4900 l0 -4900 7585 0 7585 0 0 4900 0 4900 -7585 0 -7585 0 0
-4900z m5886 1965 c303 -53 561 -206 699 -415 23 -36 242 -467 485 -957 244
-491 447 -893 451 -893 5 0 182 349 395 775 213 426 390 773 393 771 3 -2 7 6
7 17 1 12 16 46 33 75 17 29 31 58 31 65 1 20 76 142 87 140 6 -1 10 5 9 15
-1 12 5 16 19 14 16 -2 17 -1 5 7 -17 11 -4 28 90 119 64 62 203 157 208 142
2 -5 11 -10 20 -10 11 0 6 -6 -12 -15 -36 -19 -45 -19 -20 0 17 13 16 14 -14
4 -24 -8 -30 -14 -22 -24 8 -9 4 -11 -17 -8 -20 3 -24 2 -14 -5 9 -7 10 -12 2
-16 -6 -4 -11 -2 -11 4 0 7 -24 -7 -52 -30 -45 -35 -53 -47 -53 -75 -1 -22 5
-35 15 -38 10 -3 15 3 15 20 0 12 -6 23 -12 23 -7 0 -13 7 -13 16 0 11 5 14
17 10 10 -4 14 -4 10 0 -10 10 23 44 42 44 12 0 9 -6 -9 -21 -16 -14 -19 -19
-7 -15 24 8 53 -4 35 -15 -10 -6 -8 -12 9 -28 20 -19 22 -19 36 -3 9 9 16 22
16 27 1 9 5 10 32 7 6 -1 -17 -25 -52 -53 -35 -28 -67 -56 -70 -61 -4 -6 -12
-7 -19 -3 -9 5 -11 4 -6 -4 4 -7 -5 -26 -23 -46 -16 -19 -42 -55 -56 -80 -15
-25 -31 -43 -36 -39 -5 3 -6 -1 -3 -9 7 -19 -64 -160 -76 -152 -5 3 -7 0 -4
-8 3 -8 -11 -47 -32 -87 -27 -55 -39 -69 -46 -59 -7 10 -8 8 -3 -7 6 -23 18 2
-508 -1056 -182 -367 -335 -664 -339 -660 -4 4 -241 475 -526 1047 -469 938
-526 1047 -579 1108 -135 154 -326 255 -558 292 -94 15 -575 22 -575 8 0 -7
1649 -3315 1656 -3322 11 -11 383 89 686 183 141 44 384 129 605 213 l102 38
81 164 c60 119 85 160 92 150 7 -10 8 -8 3 7 -4 15 25 81 95 220 56 110 98
190 95 179 -16 -46 -16 -49 -5 -32 11 18 12 18 25 0 9 -12 10 -23 4 -35 -5 -9
-6 -25 -3 -35 5 -15 4 -15 -5 -3 -9 12 -11 9 -11 -17 0 -17 5 -33 11 -35 5 -2
11 -18 11 -36 1 -28 2 -30 14 -14 7 10 9 19 3 23 -6 3 -8 19 -4 35 4 24 4 26
-5 9 l-10 -20 3 20 c4 30 21 24 28 -10 l5 -30 8 33 c4 17 11 32 16 32 4 0 15
18 24 40 9 22 18 40 21 40 7 0 -8 -33 -77 -173 -35 -70 -68 -124 -72 -120 -4
4 -7 1 -5 -7 4 -22 -38 -111 -52 -108 -6 2 -14 -4 -16 -12 -4 -13 -3 -13 6 0
12 17 15 1 5 -25 -6 -13 -9 -14 -16 -3 -7 10 -8 8 -7 -7 1 -11 -1 -28 -6 -38
-6 -15 -10 -16 -17 -5 -6 9 -7 6 -3 -9 4 -15 -15 -64 -65 -163 -39 -77 -74
-139 -78 -136 -4 2 -8 -3 -8 -12 0 -9 -3 -26 -7 -37 -6 -17 -2 -20 24 -21 22
-1 27 2 17 8 -9 7 -7 8 10 5 12 -3 20 -2 17 2 -3 6 112 57 225 99 29 11 -2
-13 -33 -26 -26 -10 -27 -11 -7 -8 14 2 33 7 43 11 10 4 17 4 16 -1 -1 -5 -1
-66 0 -137 l1 -127 28 5 c24 5 23 4 -7 -10 -37 -17 -54 -20 -31 -5 13 9 13 10
0 10 -8 0 -26 3 -40 6 l-25 5 24 -14 c23 -14 23 -15 5 -25 -29 -17 -7 -14 67
10 37 12 66 25 63 30 -3 4 2 5 12 1 13 -5 13 -7 3 -13 -24 -13 -318 -118 -469
-168 l-145 -48 -120 -237 c-67 -131 -124 -234 -128 -230 -5 4 -5 -1 -1 -11 6
-15 4 -17 -6 -11 -8 5 -11 4 -6 -3 3 -6 -89 -202 -206 -437 -167 -334 -215
-422 -224 -411 -5 8 -125 245 -265 526 l-254 511 -40 -5 c-22 -2 -92 -12 -155
-20 -316 -44 -719 -59 -938 -35 -134 14 -295 51 -384 88 -158 66 -270 180
-294 299 l-6 32 38 -36 c162 -149 545 -232 946 -204 198 14 300 26 478 56 176
30 230 40 235 45 2 2 -406 823 -907 1824 -501 1001 -917 1835 -925 1853 l-13
32 384 0 c300 0 403 -3 472 -15z m3211 -21 c-3 -3 -12 -4 -19 -1 -8 3 -5 6 6
6 11 1 17 -2 13 -5z m-147 -44 c-8 -5 -22 -9 -30 -9 -10 0 -8 3 5 9 27 12 43
12 25 0z m-78 -30 c-36 -22 -42 -24 -42 -12 0 5 12 13 28 19 44 17 50 15 14
-7z m135 4 c-3 -3 -12 -4 -19 -1 -8 3 -5 6 6 6 11 1 17 -2 13 -5z m170 -50
c-3 -3 -12 -4 -19 -1 -8 3 -5 6 6 6 11 1 17 -2 13 -5z m-236 -66 c-29 -13 -47
-16 -53 -10 -7 7 -6 10 3 9 30 -1 50 3 46 11 -3 4 7 8 21 8 22 1 19 -2 -17
-18z m-231 -8 c0 -5 -4 -10 -10 -10 -5 0 -10 5 -10 10 0 6 5 10 10 10 6 0 10
-4 10 -10z m150 -6 l25 -15 -25 7 c-14 3 -29 10 -34 15 -16 14 6 10 34 -7z
m-110 -30 c0 -16 -28 -18 -50 -4 -13 8 -12 11 5 24 22 16 45 5 45 -20z m100 6
c0 -5 -7 -7 -15 -4 -8 4 -15 8 -15 10 0 2 7 4 15 4 8 0 15 -4 15 -10z m-25
-18 c-3 -3 -11 0 -18 7 -9 10 -8 11 6 5 10 -3 15 -9 12 -12z m-85 -32 c0 -5
-4 -10 -10 -10 -5 0 -10 5 -10 10 0 6 5 10 10 10 6 0 10 -4 10 -10z m461
-1011 c-5 -13 -10 -19 -10 -12 -1 15 10 45 15 40 3 -2 0 -15 -5 -28z m90 -122
c-10 -9 -11 -8 -5 6 3 10 9 15 12 12 3 -3 0 -11 -7 -18z m-210 -110 c-10 -9
-11 -8 -5 6 3 10 9 15 12 12 3 -3 0 -11 -7 -18z m-21 -57 c-6 -11 -13 -20 -16
-20 -2 0 0 9 6 20 6 11 13 20 16 20 2 0 0 -9 -6 -20z m118 -55 c-3 -3 -9 2
-12 12 -6 14 -5 15 5 6 7 -7 10 -15 7 -18z m-154 -21 c3 -8 2 -12 -4 -9 -6 3
-10 10 -10 16 0 14 7 11 14 -7z m-18 -71 c-3 -4 -6 -1 -6 7 0 10 -3 10 -17 -1
-15 -13 -15 -12 -2 8 11 19 15 20 22 7 5 -9 6 -18 3 -21z m137 22 c-3 -9 -8
-14 -10 -11 -3 3 -2 9 2 15 9 16 15 13 8 -4z m-182 -62 c-12 -20 -14 -14 -5
12 4 9 9 14 11 11 3 -2 0 -13 -6 -23z m-14 -52 c0 -22 -4 -28 -15 -23 -12 4
-14 0 -9 -19 3 -13 2 -30 -2 -38 -6 -9 -8 0 -7 25 2 29 22 84 32 84 0 0 1 -13
1 -29z m105 -73 c-8 -8 -9 -4 -5 13 4 13 8 18 11 10 2 -7 -1 -18 -6 -23z
m-166 -32 c-8 -20 -13 -44 -10 -54 5 -13 4 -14 -4 -3 -8 11 -11 9 -17 -8 -4
-13 -1 -28 7 -38 11 -14 11 -15 -2 -11 -25 8 -23 34 6 97 30 64 45 78 20 17z
m134 -27 c-7 -11 -14 -18 -17 -15 -3 3 0 12 7 21 18 21 23 19 10 -6z m-20 -39
c0 -5 -5 -10 -11 -10 -5 0 -8 -4 -5 -8 2 -4 0 -14 -5 -22 -7 -11 -8 -8 -5 10
3 14 5 28 5 33 1 11 21 8 21 -3z m-160 -72 c0 -23 -4 -29 -16 -24 -11 4 -18
-1 -21 -14 -3 -11 -9 -20 -13 -20 -15 0 -29 -57 -17 -69 6 -6 7 -14 3 -18 -4
-4 -12 -1 -17 7 -8 11 -9 8 -3 -10 9 -34 13 -37 25 -20 5 8 7 26 4 40 -4 19
-3 21 5 10 13 -20 13 -33 -4 -55 -12 -16 -16 -17 -30 -6 -9 7 -16 21 -16 30 0
23 83 189 93 184 4 -2 7 -18 7 -35z m90 -57 c0 7 3 10 6 6 3 -3 2 -13 -3 -21
-7 -13 -12 -10 -27 17 l-17 32 20 -24 c12 -13 21 -17 21 -10z m-17 -47 c1 -4
-6 -8 -15 -10 -14 -2 -15 1 -5 17 11 17 14 16 20 -7z m-20 -39 c-3 -9 -8 -14
-10 -11 -3 3 -2 9 2 15 9 16 15 13 8 -4z m-166 -69 c-9 -23 -12 -27 -15 -13
-6 29 8 74 18 58 4 -8 3 -28 -3 -45z m141 14 c-7 -10 -14 -17 -17 -15 -4 4 18
35 25 35 2 0 -1 -9 -8 -20z m-33 -18 c-4 -15 -2 -21 4 -17 7 3 8 0 5 -9 -3 -9
-12 -16 -20 -16 -8 0 -17 0 -21 -1 -4 0 -9 5 -11 13 -2 9 -1 9 7 -1 8 -12 11
-10 16 11 4 15 4 31 1 36 -3 5 2 9 10 9 11 0 14 -7 9 -25z m290 -641 c-6 -5
-21 -11 -35 -15 -21 -5 -20 -3 5 9 35 17 42 18 30 6z m-205 -91 c-22 -14 5
-13 33 1 18 10 20 9 9 -2 -7 -7 -23 -14 -35 -14 -13 -1 -28 -4 -33 -8 -6 -3
-26 -8 -45 -11 -31 -5 -30 -3 16 19 51 24 83 33 55 15z m-147 -62 c-40 -13
-44 -31 -5 -22 l27 6 -30 -21 c-16 -11 -34 -21 -40 -21 -5 0 -3 5 5 10 10 6
11 10 3 10 -7 0 -13 6 -13 14 0 14 42 35 70 34 8 0 0 -5 -17 -10z m27 -42 c0
-2 -7 -6 -15 -10 -8 -3 -15 -1 -15 4 0 6 7 10 15 10 8 0 15 -2 15 -4z m128
-209 c4 7 13 9 19 5 7 -4 -5 -14 -28 -24 -21 -9 -39 -12 -39 -7 0 5 5 9 10 9
6 0 9 3 9 8 -3 19 2 25 11 12 8 -11 12 -12 18 -3z m-68 -32 c0 -8 -4 -15 -10
-15 -5 0 -10 7 -10 15 0 8 5 15 10 15 6 0 10 -7 10 -15z"/>
<path d="M8532 6514 c-18 -13 -21 -19 -11 -30 6 -8 17 -14 23 -13 7 0 6 2 -1
6 -15 5 -18 33 -4 33 5 0 11 -3 14 -7 2 -5 2 -3 1 4 -2 6 2 14 9 17 7 2 7 5 2
5 -6 1 -21 -6 -33 -15z"/>
<path d="M8647 6514 c-8 -9 1 -24 14 -24 6 0 8 4 4 9 -3 5 3 12 12 14 15 4 14
5 -3 6 -11 0 -24 -2 -27 -5z"/>
<path d="M8457 6415 c-4 -11 -10 -27 -13 -35 -3 -8 1 -5 11 8 9 12 15 28 13
34 -3 7 -7 4 -11 -7z"/>
<path d="M8563 6392 c-1 -22 0 -24 9 -8 6 10 6 22 2 26 -5 5 -10 -3 -11 -18z"/>
<path d="M8510 6345 c-7 -9 -10 -18 -7 -21 3 -3 10 4 17 15 13 25 8 27 -10 6z"/>
<path d="M8536 6345 c-3 -8 -1 -15 4 -15 6 0 10 7 10 15 0 8 -2 15 -4 15 -2 0
-6 -7 -10 -15z"/>
<path d="M8481 6285 c0 -5 3 -18 7 -27 6 -15 9 -13 19 8 10 21 10 24 -2 14
-10 -8 -14 -8 -18 2 -3 7 -5 9 -6 3z"/>
<path d="M8687 4475 c-9 -19 -13 -35 -8 -35 10 0 36 58 29 65 -2 3 -12 -11
-21 -30z"/>
<path d="M8656 4470 c-9 -17 -13 -30 -8 -30 10 0 37 48 31 55 -3 2 -13 -9 -23
-25z"/>
<path d="M8600 4334 c0 -13 18 -39 24 -34 2 3 -2 14 -10 24 -8 11 -14 16 -14
10z"/>
<path d="M8576 4305 c-9 -26 -7 -32 5 -12 6 10 9 21 6 23 -2 3 -7 -2 -11 -11z"/>
<path d="M8653 4273 c-9 -3 -10 -10 -3 -23 7 -13 6 -20 -3 -23 -9 -4 -9 -8 2
-15 9 -7 10 -12 2 -16 -6 -4 -11 -12 -11 -19 0 -6 6 -3 13 8 8 10 13 34 11 54
-2 33 -1 34 11 17 13 -18 14 -18 12 3 -1 21 -10 24 -34 14z"/>
<path d="M8541 4236 c-7 -9 -8 -22 -3 -37 9 -22 10 -21 14 14 5 42 5 42 -11
23z"/>
<path d="M8567 4223 c-12 -11 -8 -23 8 -23 8 0 15 7 15 15 0 16 -12 20 -23 8z"/>
<path d="M8520 4185 c0 -5 5 -17 10 -25 5 -8 10 -10 10 -5 0 6 -5 17 -10 25
-5 8 -10 11 -10 5z"/>
<path d="M8552 4140 c0 -14 2 -19 5 -12 2 6 2 18 0 25 -3 6 -5 1 -5 -13z"/>
<path d="M8570 4089 c0 -5 5 -7 10 -4 6 3 10 8 10 11 0 2 -4 4 -10 4 -5 0 -10
-5 -10 -11z"/>
<path d="M8451 4033 c-10 -26 -10 -27 4 -9 8 11 15 23 15 28 0 15 -7 8 -19
-19z"/>
<path d="M8521 3944 c0 -11 3 -14 6 -6 3 7 2 16 -1 19 -3 4 -6 -2 -5 -13z"/>
<path d="M8386 3925 c-9 -26 -7 -32 5 -12 6 10 9 21 6 23 -2 3 -7 -2 -11 -11z"/>
<path d="M8608 3703 c7 -3 16 -2 19 1 4 3 -2 6 -13 5 -11 0 -14 -3 -6 -6z"/>
<path d="M8605 3680 c-13 -6 -15 -9 -5 -9 8 0 22 4 30 9 18 12 2 12 -25 0z"/>
<path d="M8545 3660 c-16 -7 -17 -9 -3 -9 9 -1 20 4 23 9 7 11 7 11 -20 0z"/>
<path d="M8618 3653 c7 -3 16 -2 19 1 4 3 -2 6 -13 5 -11 0 -14 -3 -6 -6z"/>
<path d="M8616 3624 c-3 -8 -1 -25 6 -37 8 -16 13 -18 16 -8 2 7 -2 18 -9 23
-11 7 -11 11 -1 15 14 5 16 23 3 23 -5 0 -12 -7 -15 -16z"/>
<path d="M8650 3550 c0 -5 11 -10 25 -10 14 0 25 5 25 10 0 6 -11 10 -25 10
-14 0 -25 -4 -25 -10z"/>
<path d="M8629 3520 c-7 -35 -4 -48 7 -38 3 4 4 21 2 40 l-3 33 -6 -35z"/>
<path d="M8640 3449 c0 -5 5 -7 10 -4 6 3 10 8 10 11 0 2 -4 4 -10 4 -5 0 -10
-5 -10 -11z"/>
<path d="M8480 3390 c0 -5 7 -7 15 -4 8 4 15 8 15 10 0 2 -7 4 -15 4 -8 0 -15
-4 -15 -10z"/>
<path d="M8515 3380 c-13 -6 -15 -9 -5 -9 8 0 22 4 30 9 18 12 2 12 -25 0z"/>
<path d="M8821 4784 c0 -11 3 -14 6 -6 3 7 2 16 -1 19 -3 4 -6 -2 -5 -13z"/>
</g>
</svg>
